<?xml version="1.0" standalone="no"?>
<!DOCTYPE svg PUBLIC "-//W3C//DTD SVG 20010904//EN"
 "http://www.w3.org/TR/2001/REC-SVG-20010904/DTD/svg10.dtd">
<svg version="1.0" xmlns="http://www.w3.org/2000/svg"
 width="1200.000000pt" height="863.000000pt" viewBox="0 0 1200.000000 863.000000"
 preserveAspectRatio="xMidYMid meet">

<g transform="translate(0.000000,863.000000) scale(0.100000,-0.100000)"
fill="#000000" stroke="none">
<path d="M5917 8520 c-673 -703 -1217 -1951 -1386 -3185 -68 -493 -80 -1204
-27 -1595 l11 -85 1516 -3 1516 -2 11 152 c30 387 34 497 29 793 -6 308 -18
462 -57 750 -167 1207 -735 2499 -1395 3174 l-111 113 -107 -112z"/>
<path d="M86 6283 c-13 -46 -16 -315 -6 -468 41 -629 226 -1282 569 -2015 l67
-145 1757 -3 c966 -1 1757 1 1757 5 0 3 -38 63 -84 132 -324 484 -819 1000
-1316 1372 -541 406 -1165 735 -1780 939 -264 87 -635 170 -835 185 -44 3 -90
8 -102 11 -15 3 -23 -2 -27 -13z"/>
<path d="M11835 6284 c-507 -55 -1159 -269 -1725 -566 -585 -308 -1057 -654
-1510 -1107 -325 -326 -568 -621 -754 -919 l-26 -42 1755 2 1756 3 83 175
c294 615 482 1217 551 1755 33 260 40 704 10 711 -5 1 -68 -5 -140 -12z"/>
<path d="M960 3195 c0 -30 160 -278 256 -397 l55 -68 4749 0 4749 0 48 56 c67
78 156 203 219 311 30 50 54 94 54 97 0 3 -2279 6 -5065 6 -2786 0 -5065 -2
-5065 -5z"/>
<path d="M1670 2241 c0 -17 254 -273 339 -341 l86 -70 3905 0 3906 0 79 49
c144 89 336 266 389 359 6 9 -867 12 -4348 12 -2434 0 -4356 -4 -4356 -9z"/>
<path d="M2755 1360 c3 -5 83 -61 178 -123 684 -453 1438 -753 2099 -834 76
-9 141 -13 145 -9 24 23 11 599 -19 869 l-11 107 -1199 0 c-779 0 -1197 -3
-1193 -10z"/>
<path d="M5288 1338 c11 -18 68 -114 127 -213 189 -317 361 -555 526 -728 l84
-88 90 101 c216 245 413 525 586 838 l68 122 -750 0 -751 0 20 -32z"/>
<path d="M6902 1298 c-36 -234 -52 -450 -52 -710 l0 -198 29 0 c17 0 83 7 148
15 733 95 1534 429 2228 929 l50 36 -1196 0 -1196 0 -11 -72z"/>
</g>
</svg>
