<svg xmlns="http://www.w3.org/2000/svg" version="1.0" preserveAspectRatio="xMidYMid meet" viewBox="423.53 561 3247.97 380">

<g transform="translate(0.000000,1402.000000) scale(0.100000,-0.100000)" fill="#000000" stroke="none">
<path d="M33530 8402 c0 -5 385 -431 855 -947 470 -516 855 -942 855 -945 0 -3 -385 -429 -855 -945 -470 -516 -855 -942 -855 -947 0 -4 330 -8 733 -8 l733 0 860 944 c472 519 859 949 859 956 0 7 -387 437 -859 956 l-860 944 -733 0 c-403 0 -733 -4 -733 -8z"/>
<path d="M5695 8119 c-274 -36 -556 -146 -786 -308 -120 -84 -295 -259 -382 -381 -77 -109 -174 -298 -213 -414 -222 -677 36 -1401 644 -1806 452 -301 1022 -371 1537 -190 126 45 293 130 405 208 93 64 302 263 368 349 l32 41 -352 243 c-194 133 -358 242 -365 243 -6 1 -35 -27 -65 -60 -241 -276 -582 -366 -903 -238 -188 75 -361 246 -440 434 -151 359 19 786 388 971 119 60 210 81 347 81 142 0 232 -22 363 -89 79 -40 108 -63 205 -160 l114 -114 359 247 359 247 -47 56 c-221 264 -434 422 -719 534 -250 98 -582 140 -849 106z"/>
<path d="M9106 8120 c-216 -25 -394 -77 -581 -170 -787 -393 -1114 -1332 -736 -2114 220 -455 637 -776 1151 -887 91 -20 135 -23 325 -24 194 0 233 3 329 24 407 87 753 306 998 631 86 115 190 312 234 444 131 400 99 831 -91 1211 -77 152 -170 280 -300 410 -251 251 -548 402 -900 460 -115 19 -327 26 -429 15z m294 -844 c248 -45 444 -193 558 -422 100 -199 98 -464 -4 -672 -183 -373 -640 -529 -1019 -348 -196 93 -345 274 -406 492 -30 104 -32 276 -5 379 60 230 218 419 430 515 142 65 293 83 446 56z"/>
<path d="M26467 8119 c-627 -81 -1006 -489 -974 -1049 13 -216 77 -370 212 -506 179 -182 388 -275 908 -403 513 -127 609 -178 609 -321 0 -161 -198 -242 -512 -211 -308 32 -595 144 -848 333 -40 30 -43 31 -60 15 -9 -10 -119 -138 -244 -285 l-227 -267 47 -43 c117 -108 364 -248 576 -327 454 -168 1025 -196 1428 -69 383 121 638 384 710 734 27 129 21 350 -12 455 -73 231 -214 382 -475 510 -159 78 -316 130 -585 195 -471 114 -576 156 -626 252 -22 42 -18 118 9 169 18 34 36 51 82 74 58 30 61 30 214 30 127 0 172 -5 244 -23 128 -32 275 -92 411 -168 79 -44 124 -64 132 -58 7 5 117 132 244 283 189 224 228 276 219 288 -26 31 -229 158 -333 208 -199 96 -434 160 -675 185 -120 12 -376 11 -474 -1z"/>
<path d="M11530 6530 l0 -1510 405 0 405 0 2 842 3 841 605 -841 605 -842 462 0 463 0 0 1510 0 1510 -405 0 -405 0 -2 -850 -3 -851 -650 851 -650 850 -417 0 -418 0 0 -1510z"/>
<path d="M15576 6533 l492 -1508 662 0 662 0 467 1430 c257 787 479 1465 494 1508 l26 77 -466 -2 -465 -3 -338 -1080 c-209 -667 -344 -1083 -353 -1089 -11 -7 -26 -7 -44 0 -27 9 -37 39 -364 1089 l-337 1080 -464 3 -465 2 493 -1507z"/>
<path d="M18960 6530 l0 -1510 1210 0 1210 0 0 400 0 400 -807 2 -808 3 -3 183 -2 182 725 0 725 0 0 360 0 360 -725 0 -725 0 2 163 3 162 808 3 807 2 0 400 0 400 -1210 0 -1210 0 0 -1510z"/>
<path d="M22222 6528 l3 -1513 403 -3 402 -2 0 545 0 545 206 0 c115 0 213 -4 224 -10 10 -5 132 -240 283 -545 l266 -535 450 0 c248 0 451 3 451 6 0 3 -140 283 -312 622 -204 404 -307 617 -299 620 29 10 173 126 222 179 106 117 188 269 226 420 24 95 24 341 0 436 -42 168 -131 323 -256 448 -130 129 -282 216 -469 267 l-97 27 -853 3 -852 3 2 -1513z m1617 682 c108 -62 108 -209 0 -270 l-44 -25 -380 0 -380 0 -3 150 c-1 82 0 155 3 163 4 11 73 13 382 10 l378 -3 44 -25z"/>
<path d="M28760 6530 l0 -1510 1210 0 1210 0 0 400 0 400 -805 0 -805 0 0 185 0 185 725 0 725 0 0 360 0 360 -725 0 -725 0 0 165 0 165 805 0 805 0 0 400 0 400 -1210 0 -1210 0 0 -1510z"/>
<path d="M33400 7479 c-41 -58 -145 -205 -230 -327 -85 -122 -159 -222 -165 -222 -5 0 -179 56 -385 124 -206 67 -377 122 -379 120 -2 -2 105 -152 238 -333 l241 -331 -235 -326 c-130 -180 -234 -328 -232 -331 3 -2 174 52 381 120 l376 125 233 -332 232 -331 3 411 2 410 385 124 c212 68 385 127 385 130 0 4 -172 62 -382 131 l-383 125 -5 410 -5 409 -75 -106z"/>
</g>
</svg>