<?xml version="1.0" standalone="no"?>
<!DOCTYPE svg PUBLIC "-//W3C//DTD SVG 20010904//EN"
 "http://www.w3.org/TR/2001/REC-SVG-20010904/DTD/svg10.dtd">
<svg version="1.0" xmlns="http://www.w3.org/2000/svg"
 width="551.000000pt" height="459.000000pt" viewBox="0 0 551.000000 459.000000"
 preserveAspectRatio="xMidYMid meet">

<g transform="translate(0.000000,459.000000) scale(0.100000,-0.100000)"
fill="#000000" stroke="none">
<path d="M3200 4397 c-52 -17 -126 -96 -140 -148 -18 -66 -6 -160 31 -238 57
-121 59 -136 35 -247 -12 -55 -29 -110 -38 -124 -15 -23 -47 -130 -52 -175 -2
-11 -11 -36 -21 -55 -10 -19 -19 -52 -20 -75 -1 -22 -17 -87 -35 -145 -26 -83
-40 -114 -74 -151 -36 -40 -42 -44 -53 -30 -7 9 -13 26 -13 38 0 16 -8 25 -26
29 -14 4 -42 22 -62 40 -21 19 -51 41 -69 49 -119 57 -273 -53 -273 -195 0
-50 17 -84 64 -129 l35 -34 -19 -37 c-23 -45 -41 -61 -94 -80 -43 -16 -75 -56
-147 -185 -19 -34 -49 -83 -67 -110 -18 -28 -36 -61 -39 -75 -3 -14 -21 -42
-40 -63 -52 -58 -139 -197 -178 -282 -39 -85 -112 -169 -180 -210 -25 -14 -77
-31 -122 -38 -43 -7 -77 -18 -76 -23 5 -23 123 -29 176 -8 35 13 15 -14 -23
-31 -77 -35 -32 -55 55 -25 59 20 79 20 57 -2 -18 -18 -14 -38 7 -38 11 0 31
15 46 32 40 48 53 53 78 30 28 -25 61 -35 87 -27 30 9 24 35 -10 46 -29 11
-30 13 -30 72 0 48 7 76 29 122 33 70 54 93 143 157 65 47 123 120 154 193 8
20 25 40 39 45 13 5 30 18 37 30 22 35 50 24 86 -34 17 -30 32 -61 32 -69 0
-8 9 -26 20 -40 11 -14 20 -33 20 -44 1 -10 7 -36 15 -58 13 -37 13 -41 -11
-72 -14 -18 -32 -33 -40 -33 -8 0 -26 -11 -39 -25 -22 -21 -25 -33 -25 -103 0
-90 -15 -120 -72 -142 -18 -8 -51 -31 -73 -51 -22 -21 -71 -65 -110 -97 -38
-32 -99 -95 -134 -140 -36 -45 -71 -82 -78 -82 -20 0 -87 -36 -103 -56 -8 -9
-46 -31 -85 -49 -89 -40 -210 -113 -302 -182 -92 -69 -263 -240 -263 -263 0
-23 -28 -34 -47 -18 -13 10 -19 8 -33 -10 -10 -12 -20 -28 -22 -34 -7 -20 -38
0 -38 25 0 13 -6 32 -14 43 -13 16 -15 17 -21 3 -3 -9 -1 -36 4 -60 14 -57 14
-59 -3 -59 -19 0 -48 -29 -41 -41 10 -16 -115 -59 -215 -74 -91 -14 -140 -68
-107 -119 34 -51 84 -94 121 -105 34 -9 46 -7 85 11 34 15 64 20 116 19 l70
-1 57 58 c31 31 64 64 73 72 9 8 35 36 59 62 23 26 63 56 88 67 25 10 49 24
53 30 3 6 17 8 29 5 18 -4 47 13 135 80 61 46 155 108 209 137 53 28 150 88
215 133 65 45 132 88 150 96 37 16 341 171 503 256 l111 58 69 -31 c38 -16 89
-35 114 -41 25 -6 106 -36 180 -67 176 -74 289 -115 318 -115 49 0 158 -35
223 -71 38 -20 124 -79 191 -131 142 -108 172 -128 191 -128 8 0 50 -27 93
-61 91 -70 130 -93 149 -85 27 10 197 -175 250 -273 17 -31 37 -57 46 -59 9
-2 54 27 99 63 46 37 100 75 120 85 72 37 270 210 270 236 0 7 -11 21 -25 30
-32 21 -71 14 -127 -23 -40 -27 -47 -28 -160 -28 -65 0 -118 2 -118 4 0 15 76
92 96 97 13 3 24 10 24 15 0 17 -52 9 -83 -13 -72 -51 -96 -60 -125 -44 -15 7
-39 19 -55 25 -22 9 -26 15 -21 35 4 19 -1 28 -28 47 -18 13 -69 55 -113 93
-201 173 -533 407 -597 421 -21 5 -59 32 -102 72 -80 75 -179 142 -293 197
l-80 39 4 41 c4 35 1 45 -23 70 -16 15 -40 34 -54 41 -15 8 -34 31 -44 53 -17
37 -17 45 -3 108 22 100 29 215 19 331 -8 89 -14 112 -45 171 -41 79 -71 206
-61 260 4 19 18 63 31 96 14 34 29 99 34 146 12 120 24 180 42 220 8 19 21 64
28 100 7 36 20 75 30 88 20 26 44 151 36 190 -3 15 1 83 9 152 8 69 12 139 9
156 -5 31 -5 31 44 37 62 7 100 27 146 74 35 36 65 111 65 163 0 75 -60 169
-133 206 -39 21 -141 27 -187 11z"/>
</g>
</svg>
