<?xml version="1.0" standalone="no"?>
<!DOCTYPE svg PUBLIC "-//W3C//DTD SVG 20010904//EN"
 "http://www.w3.org/TR/2001/REC-SVG-20010904/DTD/svg10.dtd">
<svg version="1.0" xmlns="http://www.w3.org/2000/svg"
 width="320.000000pt" height="320.000000pt" viewBox="0 0 320.000000 320.000000"
 preserveAspectRatio="xMidYMid meet">

<g transform="translate(0.000000,320.000000) scale(0.100000,-0.100000)"
fill="#000000" stroke="none">
<path d="M1736 2285 c-3 -8 -14 -15 -25 -15 -11 0 -23 -5 -26 -10 -4 -6 -12
-10 -18 -9 -16 3 -68 -10 -89 -21 -10 -6 -24 -7 -33 -4 -8 4 -22 1 -30 -6 -8
-6 -23 -9 -33 -6 -11 4 -24 0 -32 -9 -15 -18 -37 -20 -43 -2 -3 8 -10 6 -26
-8 -17 -15 -26 -17 -40 -8 -13 8 -22 7 -36 -3 -10 -8 -27 -11 -37 -8 -11 3
-25 0 -33 -6 -8 -6 -23 -9 -33 -6 -11 4 -24 0 -32 -9 -7 -8 -22 -15 -35 -15
-12 0 -30 -9 -39 -19 -10 -11 -24 -17 -31 -15 -8 3 -21 -6 -30 -19 -9 -14 -24
-27 -35 -30 -29 -7 -75 -80 -100 -157 -18 -56 -22 -85 -18 -143 3 -39 11 -85
18 -102 l12 -30 24 30 c28 35 30 26 8 -39 -15 -45 -15 -51 0 -82 17 -38 44
-54 55 -35 4 7 15 9 26 5 11 -5 22 -1 29 9 7 8 21 15 32 14 15 -2 20 5 22 31
4 40 -12 62 -43 62 -22 0 -22 2 -13 34 16 51 4 84 -35 95 l-32 9 32 1 c45 1
67 -33 58 -89 -6 -34 -4 -40 11 -40 10 0 28 -10 40 -21 18 -16 40 -23 93 -27
l70 -5 42 46 c23 26 57 51 76 58 50 16 53 3 4 -17 -40 -16 -71 -54 -71 -88 0
-8 11 -25 24 -38 14 -13 30 -35 35 -50 11 -28 34 -37 46 -18 4 6 15 8 26 5 12
-4 21 -1 25 9 5 12 11 13 24 6 25 -14 30 -13 30 6 0 10 7 14 23 12 16 -2 23 3
25 18 4 25 -23 50 -73 67 -36 13 -30 13 91 14 99 0 147 5 205 21 68 18 95 20
250 15 184 -6 251 3 264 34 9 24 -13 37 -95 59 -39 10 -70 21 -70 26 0 4 -6 5
-14 2 -8 -3 -17 -1 -20 5 -4 6 -13 7 -22 4 -20 -7 -96 27 -91 41 2 6 14 10 26
9 11 -2 21 2 21 7 0 6 9 10 19 10 11 0 22 4 26 10 3 5 12 7 20 3 8 -3 15 0 15
6 0 6 9 11 20 11 11 0 20 5 20 11 0 6 9 8 20 4 11 -4 20 -2 20 4 0 6 9 11 20
11 11 0 20 5 20 11 0 6 7 8 16 5 17 -7 43 18 44 41 0 30 -37 32 -145 7 -79
-18 -115 -23 -129 -15 -37 17 -126 21 -155 7 -47 -24 -154 -28 -223 -10 -98
27 -311 25 -411 -3 -57 -16 -84 -20 -102 -13 -30 11 -31 21 -7 42 30 27 58 37
208 79 249 68 359 132 388 227 8 24 -8 31 -18 7z m-516 -180 c0 -9 -6 -12 -16
-8 -13 5 -13 7 -2 14 17 11 18 11 18 -6z m-50 -15 c0 -5 -7 -10 -16 -10 -8 0
-12 5 -9 10 3 6 10 10 16 10 5 0 9 -4 9 -10z m-60 -20 c0 -5 -4 -10 -10 -10
-5 0 -10 5 -10 10 0 6 5 10 10 10 6 0 10 -4 10 -10z m-25 -50 c-3 -5 -13 -6
-21 -3 -12 4 -13 8 -3 14 15 9 32 2 24 -11z m65 10 c0 -5 -4 -10 -9 -10 -6 0
-13 5 -16 10 -3 6 1 10 9 10 9 0 16 -4 16 -10z m-123 -36 c-9 -9 -28 6 -21 18
4 6 10 6 17 -1 6 -6 8 -13 4 -17z m93 -9 c0 -9 -6 -12 -16 -8 -13 5 -13 7 -2
14 17 11 18 11 18 -6z m-60 -20 c0 -9 -6 -12 -15 -9 -8 4 -12 10 -9 15 8 14
24 10 24 -6z m-60 -13 c0 -13 -12 -22 -22 -16 -10 6 -1 24 13 24 5 0 9 -4 9
-8z m500 -7 c0 -9 -6 -12 -15 -9 -8 4 -12 10 -9 15 8 14 24 10 24 -6z m-70 -5
c0 -5 -4 -10 -9 -10 -6 0 -13 5 -16 10 -3 6 1 10 9 10 9 0 16 -4 16 -10z m140
0 c0 -5 -4 -10 -9 -10 -6 0 -13 5 -16 10 -3 6 1 10 9 10 9 0 16 -4 16 -10z
m475 0 c3 -5 1 -10 -4 -10 -6 0 -11 5 -11 10 0 6 2 10 4 10 3 0 8 -4 11 -10z
m-925 -10 c0 -5 -7 -10 -15 -10 -8 0 -15 5 -15 10 0 6 7 10 15 10 8 0 15 -4
15 -10z m240 0 c0 -5 -4 -10 -9 -10 -6 0 -13 5 -16 10 -3 6 1 10 9 10 9 0 16
-4 16 -10z m280 0 c0 -5 -7 -10 -15 -10 -8 0 -15 5 -15 10 0 6 7 10 15 10 8 0
15 -4 15 -10z m334 1 c3 -5 -1 -12 -10 -15 -22 -9 -24 -8 -24 9 0 16 25 21 34
6z m-924 -21 c0 -5 -4 -10 -10 -10 -5 0 -10 5 -10 10 0 6 5 10 10 10 6 0 10
-4 10 -10z m240 0 c0 -5 -4 -10 -9 -10 -6 0 -13 5 -16 10 -3 6 1 10 9 10 9 0
16 -4 16 -10z m-70 -15 c0 -9 -6 -12 -15 -9 -8 4 -12 10 -9 15 8 14 24 10 24
-6z m-230 -5 c0 -5 -7 -10 -15 -10 -8 0 -15 5 -15 10 0 6 7 10 15 10 8 0 15
-4 15 -10z m160 -5 c0 -8 -4 -15 -9 -15 -13 0 -22 16 -14 24 11 11 23 6 23 -9z
m267 -12 c-3 -3 -11 -2 -17 2 -9 6 -9 10 1 16 14 8 27 -7 16 -18z m73 12 c0
-9 -6 -12 -15 -9 -8 4 -12 10 -9 15 8 14 24 10 24 -6z m-140 -10 c0 -9 -6 -12
-15 -9 -8 4 -12 10 -9 15 8 14 24 10 24 -6z m210 5 c0 -5 -4 -10 -9 -10 -6 0
-13 5 -16 10 -3 6 1 10 9 10 9 0 16 -4 16 -10z m60 -5 c0 -9 -6 -12 -16 -8
-13 5 -13 7 -2 14 17 11 18 11 18 -6z m-540 -15 c0 -5 -4 -10 -9 -10 -6 0 -13
5 -16 10 -3 6 1 10 9 10 9 0 16 -4 16 -10z m610 0 c0 -5 -4 -10 -9 -10 -6 0
-13 5 -16 10 -3 6 1 10 9 10 9 0 16 -4 16 -10z m-410 -10 c0 -5 -4 -10 -9 -10
-6 0 -13 5 -16 10 -3 6 1 10 9 10 9 0 16 -4 16 -10z m-260 -10 c0 -5 -7 -10
-15 -10 -8 0 -15 5 -15 10 0 6 7 10 15 10 8 0 15 -4 15 -10z m190 0 c0 -5 -7
-10 -15 -10 -8 0 -15 5 -15 10 0 6 7 10 15 10 8 0 15 -4 15 -10z m-70 -10 c0
-5 -4 -10 -9 -10 -6 0 -13 5 -16 10 -3 6 1 10 9 10 9 0 16 -4 16 -10z m270 0
c0 -5 -4 -10 -10 -10 -5 0 -10 5 -10 10 0 6 5 10 10 10 6 0 10 -4 10 -10z m70
0 c0 -5 -7 -10 -15 -10 -8 0 -15 5 -15 10 0 6 7 10 15 10 8 0 15 -4 15 -10z
m70 0 c0 -5 -7 -10 -15 -10 -8 0 -15 5 -15 10 0 6 7 10 15 10 8 0 15 -4 15
-10z m-210 -10 c0 -5 -7 -10 -16 -10 -8 0 -12 5 -9 10 3 6 10 10 16 10 5 0 9
-4 9 -10z m270 0 c0 -5 -4 -10 -9 -10 -6 0 -13 5 -16 10 -3 6 1 10 9 10 9 0
16 -4 16 -10z m-550 -20 c0 -5 -4 -10 -9 -10 -6 0 -13 5 -16 10 -3 6 1 10 9
10 9 0 16 -4 16 -10z m134 -21 c-3 -5 -10 -7 -15 -3 -5 3 -7 10 -3 15 3 5 10
7 15 3 5 -3 7 -10 3 -15z m76 11 c0 -5 -4 -10 -9 -10 -6 0 -13 5 -16 10 -3 6
1 10 9 10 9 0 16 -4 16 -10z m-150 -15 c0 -9 -6 -12 -15 -9 -8 4 -12 10 -9 15
8 14 24 10 24 -6z"/>
<path d="M160 1145 l0 -225 141 0 140 0 -3 48 -3 47 -77 3 -78 3 -1 142 c-1
78 -1 145 0 149 0 4 -4 19 -9 33 -8 22 -15 25 -60 25 l-50 0 0 -225z"/>
<path d="M601 1223 c-29 -81 -66 -183 -82 -225 l-28 -78 55 0 55 0 21 50 21
50 82 0 81 0 15 -47 15 -48 56 -3 56 -3 -35 113 c-19 62 -52 163 -72 223 l-36
110 -75 3 -75 3 -54 -148z m165 -79 c6 -23 4 -24 -45 -24 l-51 0 19 48 c10 26
21 56 26 67 6 17 10 14 26 -24 11 -24 22 -54 25 -67z"/>
<path d="M1112 1357 c-87 -32 -142 -113 -142 -210 0 -169 148 -271 326 -226
47 12 50 18 33 68 l-11 32 -67 -6 c-59 -6 -70 -4 -101 17 -42 29 -60 61 -60
111 0 89 55 133 157 124 69 -5 79 0 89 50 5 27 3 31 -27 42 -41 14 -154 13
-197 -2z"/>
<path d="M1510 1359 c-45 -19 -90 -60 -112 -102 -29 -55 -31 -165 -4 -217 90
-171 324 -167 403 8 33 70 28 149 -12 217 -40 69 -93 99 -179 102 -39 2 -82
-2 -96 -8z m147 -109 c91 -55 52 -230 -52 -230 -94 0 -153 96 -110 180 35 67
101 88 162 50z"/>
<path d="M1963 1351 c-99 -46 -111 -168 -21 -214 18 -10 62 -27 97 -40 69 -24
94 -48 73 -69 -17 -17 -93 -13 -136 7 -44 21 -64 17 -89 -17 -25 -33 -16 -47
51 -80 59 -28 170 -31 218 -5 49 25 84 73 84 113 0 72 -42 112 -160 149 -62
20 -80 31 -80 51 0 27 50 36 118 23 71 -13 89 -5 94 41 4 34 -40 54 -132 57
-58 3 -84 -1 -117 -16z"/>
<path d="M2293 1363 c-8 -3 -13 -24 -13 -54 l0 -49 65 0 65 0 0 -170 0 -170
60 0 60 0 0 170 0 170 39 0 c22 0 51 4 65 10 23 8 26 15 26 55 l0 45 -177 -1
c-98 0 -184 -3 -190 -6z"/>
<path d="M2730 1145 l0 -225 143 0 c98 0 147 4 155 12 7 7 12 29 12 50 l0 37
-97 3 -98 3 0 35 0 35 83 3 82 3 0 37 c0 20 -4 42 -8 49 -4 7 -38 13 -82 15
-74 3 -75 4 -78 31 l-3 27 75 0 c41 0 86 4 100 10 23 8 26 15 26 55 l0 45
-155 0 -155 0 0 -225z"/>
</g>
</svg>
