<?xml version="1.0" standalone="no"?>
<!DOCTYPE svg PUBLIC "-//W3C//DTD SVG 20010904//EN"
 "http://www.w3.org/TR/2001/REC-SVG-20010904/DTD/svg10.dtd">
<svg version="1.0" xmlns="http://www.w3.org/2000/svg"
 width="291.000000pt" height="171.000000pt" viewBox="0 0 291.000000 171.000000"
 preserveAspectRatio="xMidYMid meet">

<g transform="translate(0.000000,171.000000) scale(0.100000,-0.100000)"
fill="#000000" stroke="none">
<path d="M2599 1500 c-55 -29 -97 -84 -149 -194 -33 -72 -59 -112 -88 -138
-39 -35 -47 -38 -100 -38 -80 0 -149 36 -282 146 -58 48 -128 102 -157 120
-57 37 -143 74 -173 74 -10 0 -26 10 -35 22 -13 19 -18 21 -34 11 -13 -8 -22
-8 -29 -1 -8 8 -21 0 -46 -27 -20 -21 -36 -41 -36 -45 0 -4 -7 -13 -15 -20 -8
-7 -15 -19 -15 -27 0 -24 51 -58 95 -63 31 -4 41 -10 43 -26 3 -19 -2 -21 -51
-20 -64 0 -107 -23 -107 -57 0 -44 57 -67 67 -27 7 25 10 25 75 -5 62 -29 118
-32 158 -8 28 16 28 16 82 -30 73 -62 132 -87 233 -97 46 -5 92 -13 102 -18
33 -18 60 -56 99 -136 28 -58 57 -98 106 -147 62 -62 68 -72 68 -109 0 -50 22
-96 51 -105 31 -10 42 7 36 62 -8 80 -24 124 -57 158 -30 31 -33 40 -37 112
-5 89 -18 147 -40 181 -14 23 -13 26 20 55 19 19 53 72 79 127 52 107 59 115
143 162 64 36 89 74 69 106 -15 24 -33 24 -75 2z"/>
<path d="M200 580 l0 -300 80 0 80 0 0 75 0 75 88 0 c137 0 132 -9 132 229 0
140 -3 200 -12 209 -8 8 -65 12 -190 12 l-178 0 0 -300z m215 208 c3 -13 4
-79 3 -148 l-3 -125 -27 -3 -28 -3 0 150 0 151 25 0 c17 0 26 -7 30 -22z"/>
<path d="M640 596 c0 -245 2 -287 16 -300 13 -13 43 -16 170 -16 88 0 164 4
175 10 18 10 19 24 19 300 l0 290 -80 0 -80 0 -2 -257 c-3 -243 -4 -258 -22
-261 -10 -2 -22 2 -27 10 -5 7 -9 124 -9 261 l0 247 -80 0 -80 0 0 -284z"/>
<path d="M1096 864 c-14 -13 -16 -55 -16 -300 l0 -285 83 3 82 3 5 260 c5 252
6 260 25 260 19 0 20 -8 23 -263 l2 -263 83 3 82 3 5 260 c5 252 6 260 25 260
19 0 20 -8 23 -263 l2 -263 83 3 82 3 3 274 c2 233 0 278 -13 298 l-15 23
-275 0 c-235 0 -276 -2 -289 -16z"/>
<path d="M1757 862 c-15 -16 -17 -52 -17 -301 l0 -282 83 3 82 3 3 73 c3 69 4
72 27 72 24 0 25 -2 25 -75 l0 -75 85 0 85 0 0 278 c0 235 -2 281 -16 300 -15
21 -21 22 -178 22 -145 0 -165 -2 -179 -18z m201 -205 l3 -147 -26 0 -25 0 0
143 c0 79 3 147 7 151 4 4 14 5 23 4 13 -3 15 -27 18 -151z"/>
<path d="M2190 398 c-11 -12 -20 -32 -20 -45 0 -29 42 -73 68 -73 33 0 72 38
72 71 0 62 -78 92 -120 47z m90 -8 c24 -24 25 -38 4 -68 -17 -24 -62 -30 -82
-10 -17 17 -15 64 4 82 21 22 50 20 74 -4z"/>
<path d="M2220 348 c0 -24 3 -29 9 -19 7 11 13 12 23 3 11 -9 13 -5 12 16 0
20 -7 28 -22 30 -19 3 -22 -1 -22 -30z"/>
</g>
</svg>
