<?xml version="1.0" standalone="no"?>
<!DOCTYPE svg PUBLIC "-//W3C//DTD SVG 20010904//EN"
 "http://www.w3.org/TR/2001/REC-SVG-20010904/DTD/svg10.dtd">
<svg version="1.0" xmlns="http://www.w3.org/2000/svg"
 width="1280.000000pt" height="650.000000pt" viewBox="0 0 1280.000000 650.000000"
 preserveAspectRatio="xMidYMid meet">

<g transform="translate(0.000000,650.000000) scale(0.100000,-0.100000)"
fill="#000000" stroke="none">
<path d="M50 5396 l0 -1066 265 0 265 0 0 830 0 830 348 0 c191 0 373 -4 405
-10 89 -14 172 -56 222 -112 63 -71 88 -142 88 -253 0 -103 -23 -177 -77 -248
-34 -45 -118 -101 -176 -117 -19 -5 -169 -10 -332 -10 l-298 0 0 -225 0 -225
196 0 c107 0 228 -5 267 -11 185 -29 287 -109 339 -269 19 -59 22 -93 26 -358
l4 -292 277 2 276 3 3 285 c3 321 -6 441 -44 534 -51 127 -179 247 -321 298
-35 13 -63 25 -63 28 0 3 21 13 48 22 74 27 194 112 262 185 67 73 129 189
156 288 24 92 29 265 10 354 -51 239 -252 451 -516 543 -149 52 -137 51 -907
55 l-723 4 0 -1065z"/>
<path d="M6740 5390 l0 -1070 478 0 c504 1 630 7 750 40 320 88 578 347 633
634 15 77 12 262 -6 344 -55 263 -222 475 -461 583 -115 52 -169 61 -426 66
l-238 5 0 -230 0 -230 168 -4 c153 -3 171 -5 217 -28 67 -33 135 -103 171
-175 26 -55 29 -69 29 -165 0 -93 -3 -112 -27 -162 -37 -79 -98 -142 -177
-181 l-65 -32 -253 -3 -253 -3 0 840 0 841 -270 0 -270 0 0 -1070z"/>
<path d="M11030 5395 l0 -1065 275 0 275 0 0 330 0 330 118 0 c255 -1 397 -68
468 -223 28 -60 29 -67 32 -249 l4 -188 275 0 275 0 -5 198 c-5 210 -14 266
-63 368 -58 122 -173 223 -324 285 l-79 32 74 32 c167 73 245 142 306 269 44
92 64 196 73 369 l5 107 -268 0 -268 0 -7 -31 c-3 -17 -6 -57 -6 -88 0 -191
-82 -342 -218 -404 -40 -18 -71 -22 -219 -25 l-173 -4 -2 508 -3 509 -272 3
-273 2 0 -1065z"/>
<path d="M9574 5995 c-189 -33 -382 -127 -503 -245 -110 -107 -180 -229 -222
-385 -30 -114 -30 -317 0 -430 83 -312 325 -540 666 -630 123 -33 336 -44 466
-26 421 60 717 311 794 676 19 90 19 284 0 372 -37 174 -99 289 -224 414 -120
120 -241 187 -429 236 -84 22 -122 26 -282 29 -129 2 -210 -1 -266 -11z m361
-430 c66 -18 161 -80 208 -136 221 -257 71 -664 -267 -722 -183 -31 -381 73
-465 245 -87 178 -49 372 99 512 120 112 261 146 425 101z"/>
<path d="M3113 5979 c-301 -35 -574 -261 -674 -559 -153 -458 114 -950 582
-1071 81 -21 108 -22 662 -26 l577 -5 -2 229 -3 228 -525 5 -525 5 -60 29
c-76 38 -143 105 -181 181 -26 54 -29 70 -29 160 0 93 2 105 33 167 37 75 103
142 179 179 46 23 57 24 311 27 144 2 262 1 262 -2 0 -2 -72 -125 -160 -271
-88 -147 -165 -275 -170 -286 -10 -19 -4 -19 252 -19 l263 0 168 264 c92 146
172 277 177 293 6 17 9 123 8 253 l-3 225 -535 1 c-294 1 -567 -2 -607 -7z"/>
<path d="M5250 5980 c-453 -50 -785 -468 -730 -917 44 -353 282 -625 625 -715
76 -20 110 -22 658 -25 l577 -4 0 230 0 230 -527 3 -528 3 -57 27 c-32 15 -81
50 -108 78 -28 27 -63 76 -78 108 -24 50 -27 69 -27 157 0 93 2 105 33 167 37
75 104 143 180 180 45 22 58 23 310 26 144 2 262 1 262 -2 0 -2 -76 -132 -170
-288 l-170 -283 257 -3 c197 -2 260 1 269 10 7 7 88 130 179 272 l165 260 0
248 0 248 -527 -1 c-291 -1 -557 -5 -593 -9z"/>
<path d="M12500 3479 c-63 -5 -277 -20 -475 -34 -1439 -101 -2894 -244 -3845
-376 -547 -76 -1329 -205 -1346 -222 -3 -2 300 -183 671 -401 l675 -397 328
129 c1082 429 1902 703 2942 980 203 55 344 91 1065 276 229 59 228 63 -15 45z"/>
<path d="M634 3409 c21 -5 192 -39 380 -75 1667 -319 3057 -676 4446 -1141
838 -280 1715 -614 2800 -1066 303 -126 2147 -909 2399 -1018 24 -11 46 -17
48 -15 19 19 -2558 1554 -4092 2438 -110 63 -312 180 -450 260 -335 194 -785
447 -973 547 l-152 81 -2223 -1 c-1358 -1 -2207 -5 -2183 -10z"/>
<path d="M4095 2156 c-1428 -526 -2347 -1106 -2979 -1879 -31 -38 -56 -71 -56
-73 0 -2 454 -4 1009 -4 l1008 0 45 58 c255 324 767 746 1263 1042 281 167
666 359 943 469 45 18 84 37 87 41 2 3 -62 28 -143 54 -538 173 -669 214 -851
267 -112 32 -211 59 -220 58 -9 0 -56 -15 -106 -33z"/>
<path d="M5645 1577 c-612 -300 -1100 -638 -1520 -1053 -100 -99 -203 -213
-274 -306 -13 -17 32 -18 901 -18 l915 0 66 94 c122 173 229 300 381 451 169
168 285 267 521 440 88 64 161 121 163 125 4 9 -929 361 -956 360 -4 0 -92
-42 -197 -93z"/>
</g>
</svg>
