<?xml version="1.0" standalone="no"?>
<!DOCTYPE svg PUBLIC "-//W3C//DTD SVG 20010904//EN"
 "http://www.w3.org/TR/2001/REC-SVG-20010904/DTD/svg10.dtd">
<svg version="1.0" xmlns="http://www.w3.org/2000/svg"
 width="1200.000000pt" height="650.000000pt" viewBox="0 0 1200.000000 650.000000"
 preserveAspectRatio="xMidYMid meet">

<g transform="translate(0.000000,650.000000) scale(0.100000,-0.100000)"
fill="#000000" stroke="none">
<path d="M5740 5290 c-294 -18 -826 -111 -1125 -197 -343 -98 -357 -103 -514
-164 -68 -27 -134 -49 -147 -49 -13 0 -79 -26 -147 -59 -68 -32 -134 -62 -148
-66 -13 -4 -80 -36 -149 -70 -69 -35 -150 -74 -180 -88 -30 -14 -89 -43 -130
-65 -207 -108 -582 -285 -690 -327 -47 -18 -141 -56 -210 -84 -69 -28 -132
-51 -141 -51 -8 0 -49 -11 -90 -25 -148 -51 -338 -94 -504 -115 -168 -22 -171
-22 -205 -56 -22 -20 -47 -62 -65 -106 -26 -64 -30 -88 -33 -193 l-3 -120 51
-80 c28 -44 56 -89 61 -100 5 -11 29 -51 54 -90 25 -38 58 -94 72 -124 14 -30
38 -73 53 -95 15 -23 47 -77 70 -121 23 -44 58 -105 77 -135 32 -50 111 -187
188 -326 97 -175 157 -263 192 -286 37 -22 47 -23 328 -30 160 -3 358 -11 442
-16 138 -9 157 -13 204 -39 93 -50 94 -53 94 -290 l0 -206 80 -73 c44 -41 96
-81 115 -90 19 -9 71 -33 115 -54 158 -73 394 -111 564 -90 197 24 305 55 428
123 56 31 82 54 122 106 44 59 53 78 76 176 29 120 48 151 101 161 38 7 198
-8 429 -41 248 -36 415 -46 840 -52 450 -7 862 13 1175 57 36 5 132 16 213 25
153 16 338 51 569 106 80 19 162 32 206 33 64 0 75 -2 96 -24 13 -14 36 -54
51 -90 32 -75 80 -149 103 -157 10 -4 32 -19 49 -34 51 -44 101 -53 283 -53
176 -1 262 12 402 60 39 13 82 24 95 24 23 0 207 93 218 110 3 5 25 18 49 30
24 11 55 31 68 44 12 12 48 42 78 66 89 69 165 176 195 275 38 127 46 179 44
310 l-2 120 43 48 c23 26 63 59 88 74 26 15 74 47 107 72 87 67 372 354 437
441 140 187 195 411 130 535 -11 22 -49 69 -84 105 -75 78 -174 131 -328 179
-196 60 -425 141 -605 213 -55 22 -147 58 -205 80 -58 22 -148 60 -200 85 -52
25 -119 54 -148 64 -29 10 -110 45 -180 79 -71 33 -131 60 -136 60 -4 0 -67
29 -141 65 -73 36 -137 65 -141 65 -5 0 -67 29 -137 65 -71 36 -138 65 -149
65 -11 0 -50 14 -87 31 -92 42 -98 45 -168 73 -34 13 -77 27 -95 31 -18 3 -58
15 -89 25 -199 67 -308 94 -649 159 -411 80 -529 92 -935 96 -192 2 -415 0
-495 -5z m1480 -245 c7 -8 14 -48 17 -89 4 -70 2 -76 -19 -89 -23 -14 -872
-94 -1245 -117 -170 -11 -486 -38 -768 -67 -150 -15 -172 -20 -190 -39 -16
-17 -29 -69 -58 -231 -20 -114 -41 -242 -46 -283 -5 -41 -25 -162 -45 -269
-20 -107 -36 -196 -36 -197 0 -9 -59 -18 -200 -29 l-165 -13 -22 26 c-13 15
-25 38 -29 52 -3 14 -14 50 -26 80 -11 30 -47 134 -79 230 -33 96 -64 184 -69
195 -18 38 -61 160 -71 200 -6 22 -37 112 -70 200 -32 88 -59 168 -59 177 0
20 29 26 161 34 l105 7 51 -129 c28 -71 54 -145 58 -164 4 -19 32 -111 62
-205 30 -93 66 -207 81 -253 14 -46 29 -85 33 -88 31 -19 55 62 74 241 12 108
106 617 118 636 11 17 25 19 137 19 73 0 400 25 785 60 363 33 764 67 890 75
127 9 295 22 375 29 200 19 235 19 250 1z m-97 -331 c69 -18 157 -59 157 -74
0 -43 -72 -150 -101 -150 -10 0 -42 10 -71 23 -29 13 -71 27 -94 30 -79 13
-169 -60 -138 -111 17 -28 82 -53 174 -68 134 -23 172 -33 213 -60 84 -55 119
-219 70 -326 -22 -49 -109 -127 -172 -155 -118 -51 -405 -22 -495 50 l-29 24
33 64 c18 36 41 75 51 87 l18 23 78 -28 c61 -21 96 -28 160 -28 79 0 84 1 114
32 36 35 35 63 -4 109 -22 25 -29 26 -157 34 -82 4 -149 14 -172 23 -43 18
-124 115 -138 167 -22 80 -4 170 47 229 35 42 129 93 199 110 63 15 191 12
257 -5z m-609 -146 c22 -207 46 -492 51 -614 l7 -141 -32 -7 c-18 -3 -79 -6
-136 -6 -80 0 -106 3 -118 16 -9 9 -50 67 -91 129 -79 120 -139 193 -147 179
-3 -5 -1 -83 4 -174 10 -192 11 -190 -83 -190 -31 0 -70 -3 -87 -6 -27 -6 -31
-3 -40 27 -17 57 -52 536 -52 720 0 79 -6 74 134 94 100 14 136 9 136 -18 0
-7 24 -44 54 -83 29 -39 61 -84 70 -102 9 -17 33 -53 53 -80 49 -67 66 -60 59
22 -3 33 -7 110 -8 171 l-3 110 30 6 c17 4 66 7 111 8 l81 1 7 -62z m-1008
-70 c25 -49 58 -138 141 -383 20 -60 57 -165 82 -233 32 -88 41 -126 33 -134
-6 -6 -54 -15 -108 -20 -108 -9 -107 -10 -124 53 -5 20 -21 48 -35 63 -22 24
-31 26 -101 26 -85 0 -146 -14 -169 -40 -8 -9 -20 -45 -27 -80 -15 -75 -19
-77 -145 -79 -69 -1 -83 2 -83 15 0 8 15 93 34 187 19 95 38 195 42 222 9 70
82 383 94 405 9 17 44 28 140 43 14 2 64 5 112 6 l88 1 26 -52z m4532 -474
c28 -8 52 -17 52 -19 0 -2 -22 -60 -49 -127 -27 -68 -52 -138 -56 -155 -4 -22
-12 -33 -23 -33 -27 1 -92 27 -111 44 -17 16 -17 20 0 94 10 42 33 110 50 150
36 82 24 78 137 46z m220 -71 c12 -3 25 -9 28 -15 10 -16 -66 -250 -94 -285
l-17 -23 -60 19 c-34 11 -61 25 -63 34 -4 21 62 217 89 265 l24 40 35 -15 c19
-9 45 -18 58 -20z m-520 -10 c9 -17 24 -145 37 -313 8 -98 25 -227 32 -247 8
-20 52 -11 125 27 31 17 59 30 61 30 10 0 36 -89 42 -140 l7 -56 -80 -52 c-45
-28 -83 -52 -86 -52 -6 0 -93 -54 -156 -96 -39 -26 -138 -69 -144 -63 -11 11
-90 946 -81 957 5 6 123 20 177 21 45 1 59 -3 66 -16z m-473 -40 c3 -10 15
-137 25 -283 17 -229 40 -440 56 -517 6 -29 17 -29 82 2 l53 24 10 -26 c16
-43 15 -168 -1 -188 -8 -10 -43 -32 -77 -49 -34 -17 -105 -53 -158 -79 -53
-27 -109 -52 -125 -57 l-28 -8 -7 81 c-3 45 -15 179 -25 297 -27 302 -53 781
-43 790 14 14 95 28 164 29 55 1 68 -2 74 -16z m-503 -63 c10 -14 23 -54 29
-90 7 -36 17 -77 25 -91 7 -14 20 -66 28 -115 9 -49 38 -168 65 -264 27 -96
52 -195 56 -220 4 -25 25 -117 46 -205 21 -87 37 -160 36 -160 -119 -68 -213
-104 -228 -87 -3 4 -16 40 -29 80 -14 44 -30 77 -42 83 -24 13 -154 -27 -163
-50 -4 -9 -9 -54 -11 -101 -8 -124 -7 -123 -61 -144 -44 -16 -179 -55 -194
-56 -17 0 -18 49 -5 278 8 136 18 326 21 422 9 265 35 694 43 701 17 16 93 32
181 39 152 12 181 9 203 -20z m-546 -387 c-8 -434 -23 -909 -32 -1010 l-7 -72
-56 -20 c-31 -11 -98 -30 -149 -43 -81 -19 -94 -20 -102 -8 -15 24 -35 92 -86
303 -27 109 -54 197 -60 197 -7 0 -13 -50 -18 -147 -3 -82 -11 -210 -18 -285
l-11 -137 -48 -16 c-42 -14 -185 -34 -246 -35 -27 0 -48 36 -58 100 -4 25 -31
142 -61 260 -29 118 -61 252 -69 297 -9 45 -36 162 -61 260 -25 98 -52 210
-59 248 -7 39 -29 133 -49 210 -27 109 -32 143 -23 151 7 6 72 17 146 23 169
15 164 19 179 -127 18 -178 115 -627 125 -582 9 38 26 244 37 440 5 96 12 203
16 237 6 62 6 63 42 72 20 5 77 11 126 13 l89 5 20 -46 c11 -24 26 -85 34
-135 30 -189 110 -504 124 -489 7 7 29 455 29 603 0 30 4 62 10 70 10 16 77
26 179 29 l64 1 -7 -367z m-1420 211 c4 -14 7 -60 8 -102 l1 -76 -123 -22
c-74 -13 -130 -28 -139 -37 -16 -16 -13 -60 23 -364 6 -49 3 -48 141 -43 72 2
73 2 84 -26 6 -16 13 -72 16 -125 l6 -96 -29 -8 c-16 -4 -60 -11 -97 -15 -38
-4 -74 -13 -80 -19 -8 -8 -7 -61 5 -198 14 -154 20 -190 34 -200 12 -9 58 -13
145 -13 l127 0 11 -44 c6 -25 11 -70 11 -100 0 -51 -2 -55 -27 -60 -70 -15
-184 -26 -305 -31 -73 -3 -152 -8 -176 -10 -38 -4 -44 -2 -52 19 -9 25 -55
467 -65 631 -4 55 -22 253 -40 440 -19 187 -35 371 -37 410 l-3 69 35 8 c34 8
365 34 467 37 49 1 53 -1 59 -25z m-731 -41 c7 -20 26 -205 79 -783 43 -473
60 -730 47 -743 -13 -13 -227 -5 -242 10 -6 6 -15 60 -19 120 -5 59 -16 183
-26 276 -20 197 -13 188 -152 167 l-85 -14 7 -135 c3 -75 12 -193 18 -263 6
-70 9 -131 5 -134 -9 -10 -248 13 -260 25 -7 7 -42 404 -109 1249 -7 95 -8
156 -2 161 5 5 60 13 122 18 97 7 113 6 117 -7 12 -41 27 -158 50 -370 16
-153 29 -237 37 -242 27 -18 59 -19 125 -6 l68 13 3 41 c2 22 -6 149 -18 283
-27 324 -28 307 14 321 33 11 133 26 187 29 17 1 29 -5 34 -16z m-835 -87 c6
-8 14 -57 17 -109 l6 -94 -39 -6 c-22 -3 -70 -9 -107 -13 -69 -7 -94 -24 -82
-56 2 -7 11 -119 20 -248 8 -129 28 -368 44 -530 16 -162 26 -300 24 -308 -4
-8 -14 -11 -27 -8 -11 3 -61 9 -109 13 -48 3 -90 10 -93 15 -8 13 -70 545 -83
713 -17 214 -33 349 -44 363 -8 10 -34 12 -113 6 l-102 -7 -7 32 c-9 40 -12
188 -4 196 10 10 163 23 404 35 127 7 232 14 234 16 10 10 50 3 61 -10z m5388
-67 c-4 -39 -15 -59 -68 -124 -34 -42 -85 -98 -113 -123 -28 -26 -58 -56 -68
-66 -10 -11 -29 -26 -42 -35 -13 -9 -49 -38 -79 -64 -30 -27 -70 -58 -90 -70
-20 -12 -70 -46 -112 -74 -41 -29 -78 -53 -82 -53 -3 0 -43 -24 -87 -53 -45
-29 -118 -73 -162 -97 -44 -23 -98 -55 -120 -70 -22 -15 -72 -43 -111 -63 -40
-19 -89 -46 -111 -60 -51 -33 -292 -148 -418 -202 -55 -23 -143 -60 -195 -82
-93 -39 -166 -66 -400 -144 -193 -65 -593 -171 -690 -184 -30 -3 -109 -17
-175 -30 -135 -27 -418 -67 -605 -87 -173 -18 -1152 -18 -1345 0 -191 18 -494
57 -667 86 -79 13 -172 27 -208 31 -36 4 -173 26 -305 50 -300 55 -461 81
-545 89 -36 4 -155 18 -265 31 -110 14 -447 43 -750 65 -302 22 -563 43 -578
46 -27 6 -28 8 -22 42 4 21 13 52 21 71 l14 34 263 -6 c275 -7 376 -16 972
-91 193 -25 388 -47 435 -51 47 -4 290 -34 540 -66 250 -33 525 -66 610 -74
85 -8 223 -21 305 -29 263 -27 461 -36 800 -36 335 0 500 8 770 36 83 8 211
22 285 29 154 16 280 39 513 91 89 20 200 44 247 54 47 11 144 37 215 60 72
23 177 57 235 74 58 18 156 54 218 79 62 26 120 47 129 47 9 0 85 32 169 70
85 39 156 70 160 70 4 0 59 28 123 63 64 34 127 67 141 72 28 11 81 41 154 86
27 16 78 46 115 65 36 20 75 44 86 53 11 10 38 28 60 41 73 43 204 130 210
140 4 6 21 16 38 24 18 8 63 39 102 70 38 31 76 56 83 56 8 0 46 26 86 59 40
32 82 64 94 70 12 6 47 34 79 62 117 103 149 107 141 18z m-8365 -41 c14 -29
35 -78 48 -108 13 -30 32 -63 43 -74 19 -19 19 -19 -5 -39 -13 -10 -45 -30
-71 -43 l-47 -24 -33 56 c-50 84 -56 95 -83 153 l-25 55 21 22 c26 28 77 53
106 54 16 0 27 -13 46 -52z m2021 -5 c3 -21 6 -65 6 -99 l0 -60 -121 -13
c-144 -16 -145 -17 -132 -131 8 -70 10 -74 36 -81 16 -4 56 -3 89 2 100 16 98
18 112 -148 6 -71 12 -67 -104 -83 -124 -17 -114 -2 -107 -159 4 -75 10 -178
13 -228 l7 -93 -34 0 c-30 0 -210 29 -217 35 -7 6 -23 138 -37 292 -8 92 -19
213 -25 268 -24 236 -38 480 -28 487 11 6 120 24 238 38 36 4 117 8 181 9
l116 1 7 -37z m-635 -50 c5 -21 12 -64 15 -95 6 -52 4 -59 -16 -72 -13 -7 -68
-18 -122 -24 -55 -6 -103 -15 -109 -21 -11 -11 -5 -146 7 -158 4 -4 52 -8 106
-8 54 0 102 -3 106 -7 12 -12 26 -210 16 -220 -5 -5 -43 -14 -83 -19 -116 -14
-128 -18 -135 -44 -3 -13 -1 -80 6 -149 6 -69 9 -129 6 -135 -3 -5 -25 -7 -49
-5 -110 12 -198 27 -212 38 -12 9 -17 50 -25 191 -6 99 -20 296 -31 438 -12
142 -19 264 -16 272 7 17 43 22 267 39 277 21 258 22 269 -21z m-1588 -50 c18
-32 36 -60 39 -63 12 -9 31 -50 45 -98 13 -42 13 -48 -3 -65 -36 -40 -122 -64
-122 -34 0 6 -26 55 -59 108 -73 121 -80 143 -46 165 13 9 44 22 67 29 24 8
44 14 45 14 1 1 16 -25 34 -56z m755 17 c38 -17 79 -40 91 -52 12 -11 32 -26
44 -32 55 -28 119 -233 119 -381 0 -118 -32 -267 -69 -317 -43 -58 -107 -101
-181 -120 -86 -23 -128 -22 -211 3 -59 18 -76 29 -119 76 -28 31 -58 69 -67
87 -39 76 -78 302 -68 394 15 128 65 262 99 262 7 0 28 16 47 36 86 90 184
104 315 44z m6886 -1022 c20 -13 27 -28 32 -71 13 -101 -24 -133 -120 -103
-124 39 -261 37 -385 -5 -167 -57 -373 -206 -447 -323 -88 -138 -123 -153
-197 -85 -39 36 -45 47 -45 82 0 39 6 47 83 122 120 117 247 212 372 276 213
109 298 129 530 126 123 -2 156 -5 177 -19z m-202 -268 c31 -22 32 -26 27 -74
-4 -47 -9 -54 -80 -123 -109 -104 -226 -161 -379 -183 -73 -11 -117 1 -152 39
-52 58 44 199 210 307 21 15 133 48 189 57 66 11 153 0 185 -23z m-5605 -135
c71 -9 159 -25 195 -37 100 -32 304 -133 346 -172 22 -20 42 -36 46 -36 4 0
14 -12 21 -27 21 -40 8 -130 -22 -154 -31 -25 -55 -14 -153 71 -50 43 -90 70
-104 70 -13 0 -38 9 -56 19 -56 33 -165 70 -256 87 -132 25 -373 15 -509 -21
-57 -14 -107 -24 -112 -21 -33 21 -13 140 30 182 27 26 41 30 132 40 149 17
293 16 442 -1z m95 -297 c122 -38 230 -109 230 -153 0 -12 -14 -40 -30 -62
-39 -53 -65 -58 -305 -58 l-180 0 -79 38 c-43 20 -99 57 -123 81 -40 38 -44
47 -39 73 4 17 21 43 37 59 27 26 39 30 117 35 114 8 328 0 372 -13z"/>
<path d="M5306 4199 c-3 -13 -7 -58 -8 -99 l-3 -75 43 1 c66 1 70 12 37 94
-15 38 -36 77 -46 86 -17 15 -18 15 -23 -7z"/>
<path d="M8596 3330 c-4 -19 -8 -102 -9 -185 -2 -167 -3 -164 69 -150 34 6 34
6 28 48 -9 60 -40 192 -62 262 l-19 60 -7 -35z"/>
<path d="M2648 3129 c-9 -5 -22 -26 -29 -47 -16 -46 -16 -209 0 -277 29 -122
31 -126 67 -141 49 -21 69 -11 93 46 27 62 26 112 -1 267 -18 101 -26 128 -42
138 -31 19 -69 25 -88 14z"/>
</g>
</svg>
